:SAMPLES-PER-SECOND 30
:FULLY-SPECIFIED
:DEGREES
507
root  3.84468 40.6324 -0.0152374 -145.652 -83.7814 148.273
RightUpLeg  -2.12127 -12.3813 -12.9326
RightLeg  7.12789 3.39324 4.07019
RightFoot  -6.76897 -0.30474 6.47899
RightToes  0.00048216 0.542163 -0.142577
Spine  12.6613 0.87222 7.06705
Spine1  9.01833 3.93869 -8.3461
HEad  14.461 -0.103912 -1.58194
LeftShoulder1  6.33721 -9.50043 -42.3048
LeftArm  -19.5616 33.3067 -31.044
LeftForeArm  23.0885 -13.9362 -2.39349
LeftHand  -0.25398 0.0180481 5.50724
RightShoulder  4.9041 8.57809 34.6383
RightArm  -5.35921 -7.37492 36.818
RightForeArm  -3.18373 32.2994 7.30669
RightHand  -1.83538 5.99077 -18.9763
LeftUpLeg  -11.8433 9.04411 -1.16072
LeftLeg  7.19498 25.1968 -3.32287
LeftFoot  -3.61027 0.0566728 -0.496789
LeftToes  1.06246e-005 4.65855e-005 -8.18505e-006
508
root  4.44432 40.6297 -0.418454 -138.7 -84.5497 141.231
RightUpLeg  -3.19311 -12.3207 -12.2081
RightLeg  8.12958 2.17296 4.08639
RightFoot  -7.07409 -0.262039 5.73058
RightToes  0.00048216 0.542163 -0.142577
Spine  13.5348 1.25737 6.90184
Spine1  7.87224 3.92523 -7.04497
HEad  10.8042 -0.347298 -2.54243
LeftShoulder1  5.7166 -8.70003 -40.5325
LeftArm  -18.7033 29.6807 -30.1163
LeftForeArm  23.0433 -13.5392 -2.6067
LeftHand  -0.25398 0.0180481 5.50724
RightShoulder  4.91967 8.7608 34.1631
RightArm  -7.2133 -8.19418 35.3215
RightForeArm  -6.74643 27.1535 6.18082
RightHand  -1.83508 6.54625 -18.1079
LeftUpLeg  -14.3992 16.3719 -2.99698
LeftLeg  12.2085 15.5804 0.122983
LeftFoot  -4.93713 0.0703829 -0.716996
LeftToes  1.06246e-005 4.65855e-005 -8.18505e-006
509
root  4.9417 40.6372 -0.783442 -121.146 -85.5641 122.878
RightUpLeg  -3.32016 -12.306 -11.7949
RightLeg  9.28668 0.196139 3.77741
RightFoot  -7.20057 -0.208337 4.41037
RightToes  0.00048216 0.542163 -0.142577
Spine  14.3635 1.27592 5.8276
Spine1  6.94563 3.31014 -5.07409
HEad  7.75277 -0.623579 -2.86498
LeftShoulder1  5.09101 -7.96461 -38.1958
LeftArm  -17.6457 26.4336 -28.407
LeftForeArm  23.0787 -13.5988 -2.85517
LeftHand  -0.25398 0.0180481 5.50724
RightShoulder  4.62454 8.34556 33.0819
RightArm  -12.4082 -9.72872 33.4109
RightForeArm  -11.5405 22.9336 5.55363
RightHand  -1.97447 7.11358 -18.5954
LeftUpLeg  -15.4567 19.6773 -4.47174
LeftLeg  16.4868 7.41769 2.50898
LeftFoot  -5.69245 0.0724057 -0.78151
LeftToes  1.06246e-005 4.65855e-005 -8.18505e-006
510
root  5.31095 40.6296 -1.08006 -93.5624 -86.2015 94.549
RightUpLeg  -3.11545 -12.4825 -11.5662
RightLeg  10.3373 -1.5769 3.59321
RightFoot  -7.26709 -0.196371 4.13262
RightToes  0.00048216 0.542163 -0.142577
Spine  14.5345 0.970264 5.11666
Spine1  5.88074 2.54349 -3.6939
HEad  5.8022 -0.777646 -2.69298
LeftShoulder1  4.46203 -7.33045 -35.0808
LeftArm  -16.2362 23.9942 -25.7984
LeftForeArm  22.3556 -13.8802 -3.14952
LeftHand  -0.25398 0.0180481 5.50724
RightShoulder  4.11407 7.54064 31.297
RightArm  -18.7425 -11.8854 30.3839
RightForeArm  -14.9337 19.1222 5.48482
RightHand  -2.00055 6.96409 -19.046
LeftUpLeg  -14.8274 15.4983 -3.43616
LeftLeg  20.0135 6.58875 3.04105
LeftFoot  -5.76023 0.113317 -1.59778
LeftToes  1.06246e-005 4.65855e-005 -8.18505e-006
511
root  5.55744 40.5977 -1.30802 -70.0434 -86.18 70.5318
RightUpLeg  -2.95683 -12.6219 -11.2027
RightLeg  11.1141 -2.77916 3.49053
RightFoot  -7.61651 -0.187131 4.15274
RightToes  0.00048216 0.542163 -0.142577
Spine  14.111 0.7594 4.77623
Spine1  4.38486 2.05759 -2.88968
HEad  4.96479 -0.706745 -2.60557
LeftShoulder1  3.82925 -6.74414 -31.2856
LeftArm  -14.5928 22.2049 -22.4517
LeftForeArm  20.4827 -13.7324 -3.48186
LeftHand  -0.25398 0.0180481 5.50724
RightShoulder  3.51199 6.662 28.5489
RightArm  -22.988 -14.348 26.0512
RightForeArm  -16.1105 14.7844 5.13745
RightHand  -1.89681 6.59689 -18.6208
LeftUpLeg  -13.334 12.622 -2.24092
LeftLeg  21.9045 5.97164 2.96112
LeftFoot  -5.00883 0.19923 -3.04464
LeftToes  1.06246e-005 4.65855e-005 -8.18505e-006
512
root  5.70522 40.5555 -1.46569 -59.8614 -86.2492 59.8561
RightUpLeg  -2.81303 -12.4983 -10.5516
RightLeg  11.6511 -3.54586 3.28495
RightFoot  -8.00878 -0.159241 3.60365
RightToes  0.00048216 0.542163 -0.142577
Spine  13.3955 0.733868 4.65584
Spine1  2.75087 1.89802 -2.49592
HEad  4.62343 -0.331674 -2.85188
LeftShoulder1  3.17538 -6.06263 -27.019
LeftArm  -13.1229 20.5545 -18.5284
LeftForeArm  18.2813 -12.7208 -3.8087
LeftHand  -0.25398 0.0180481 5.50724
RightShoulder  2.87259 5.73285 24.9707
RightArm  -24.4752 -16.3169 20.9317
RightForeArm  -17.1301 10.288 4.19046
RightHand  -1.84686 6.51918 -18.2648
LeftUpLeg  -10.5715 12.227 -1.04967
LeftLeg  21.2989 4.4174 2.2509
LeftFoot  -4.41302 0.272679 -4.08483
LeftToes  1.06246e-005 4.65855e-005 -8.18505e-006
513
root  5.77327 40.5408 -1.55664 -55.0789 -86.653 54.5617
RightUpLeg  -2.40761 -12.1978 -9.81577
RightLeg  11.6745 -3.98527 3.11747
RightFoot  -8.00842 -0.145922 3.14504
RightToes  0.00048216 0.542163 -0.142577
Spine  12.3378 0.562224 4.74689
Spine1  1.46108 1.72321 -2.72689
HEad  4.2288 0.438672 -3.12778
LeftShoulder1  2.46453 -5.10056 -22.2357
LeftArm  -11.5802 19.1459 -14.3259
LeftForeArm  16.137 -11.6585 -4.19301
LeftHand  -0.25398 0.0180481 5.50724
RightShoulder  2.20126 4.56587 20.9163
RightArm  -24.5659 -16.9394 15.8707
RightForeArm  -20.6132 6.80301 3.28379
RightHand  -1.97127 6.63696 -19.2541
LeftUpLeg  -6.791 13.1328 0.135286
LeftLeg  18.0116 2.36508 1.12895
LeftFoot  -5.15764 0.241591 -3.86731
LeftToes  1.06246e-005 4.65855e-005 -8.18505e-006
514
root  5.78488 40.5886 -1.61751 -49.7171 -86.9859 48.8148
RightUpLeg  -1.59333 -11.8594 -9.261
RightLeg  10.8242 -4.27058 3.11245
RightFoot  -7.57175 -0.156713 3.19398
RightToes  0.00048216 0.542163 -0.142577
Spine  10.9482 0.15516 4.38695
Spine1  0.350479 1.21942 -3.06951
HEad  3.96534 1.54218 -3.09241
LeftShoulder1  1.77717 -3.94137 -17.1301
LeftArm  -9.52224 18.4549 -10.1729
LeftForeArm  13.0636 -11.5848 -4.70885
LeftHand  -0.25398 0.0180481 5.50724
RightShoulder  1.56676 3.23424 16.5813
RightArm  -24.1688 -16.0523 11.3971
RightForeArm  -25.8066 4.82884 3.05287
RightHand  -2.24415 7.06653 -21.0952
LeftUpLeg  -2.9666 12.0071 1.2432
LeftLeg  12.9158 2.97354 -0.228486
LeftFoot  -6.44192 0.147189 -2.5377
LeftToes  1.06246e-005 4.65855e-005 -8.18505e-006
